<?xml version="1.0" encoding="UTF-8"?>
<svg width="752pt" height="752pt" version="1.1" viewBox="0 0 752 752" xmlns="http://www.w3.org/2000/svg">
 <g fill="#007335">
  <path d="m376 0c-49.375 0-98.27 9.7266-143.89 28.621-45.621 18.895-87.07 46.59-121.98 81.508-34.918 34.914-62.613 76.363-81.508 121.98-18.895 45.617-28.621 94.512-28.621 143.89 0 99.723 39.617 195.36 110.13 265.87 70.516 70.516 166.15 110.13 265.87 110.13 99.723 0 195.36-39.617 265.87-110.13 70.512-70.512 110.13-166.15 110.13-265.87 0-99.719-39.613-195.36-110.12-265.87-70.516-70.516-166.15-110.13-265.88-110.13zm0 42.465c43.316 0 86.207 8.625 126.23 25.387 40.02 16.762 76.379 41.332 107.01 72.305s54.926 67.738 71.5 108.21c16.578 40.465 25.105 83.84 25.105 127.64 0 88.461-34.75 173.3-96.605 235.84-61.859 62.551-145.75 97.691-233.23 97.691-43.312 0-86.207-8.625-126.22-25.387-40.02-16.762-76.383-41.332-107.01-72.301-30.629-30.973-54.926-67.742-71.504-108.21-16.574-40.469-25.105-83.84-25.105-127.64s8.5312-87.172 25.105-127.64c16.578-40.469 40.871-77.238 71.5-108.21 30.629-30.969 66.992-55.539 107.01-72.301 40.02-16.762 82.914-25.387 126.23-25.387z"/>
  <path d="m247.1 513.94c-2.9883 0.49609-6.0273 0.74609-9.0352 0.74609-27.016 0-49.828-19.367-54.242-46.055l-4.9688-30.016v67.23c0 23.816 19.309 43.125 43.125 43.125h292.05c23.816 0 43.125-19.309 43.125-43.125v-43.57c-1.9414 0.54688-3.9219 1.0117-5.957 1.3477z"/>
  <path d="m595.54 394.14-23.957-144.79c-3.9375-23.797-24.277-41.074-48.363-41.074-2.6914 0-5.3945 0.22656-8.0625 0.66797l-304.1 50.316c-26.699 4.4141-44.824 29.734-40.406 56.434l23.957 144.78c3.9336 23.801 24.277 41.078 48.359 41.078 2.6875 0 5.3984-0.22656 8.0703-0.66797l304.09-50.32c12.941-2.1406 24.262-9.1875 31.898-19.848 7.6289-10.66 10.652-23.652 8.5117-36.578zm-356.36-13.188c-0.89453-5.4062 2.7656-10.516 8.1719-11.414l103.48-17.129c5.3672-0.89453 10.516 2.7695 11.414 8.1719 0.89453 5.4062-2.7656 10.516-8.1719 11.414l-103.48 17.129c-0.54688 0.09375-1.0938 0.13281-1.6328 0.13281-4.7695 0-8.9766-3.4453-9.7812-8.3047zm166.45 40.426-145.71 24.121c-0.54688 0.09375-1.0938 0.13281-1.6328 0.13281-4.7695 0-8.9727-3.4414-9.7812-8.3047-0.89453-5.4023 2.7656-10.512 8.1719-11.414l145.71-24.121c5.3711-0.89844 10.512 2.7617 11.414 8.1719 0.89453 5.4062-2.7656 10.516-8.1719 11.414zm19.176-119.01-183.55 30.387c-0.54688 0.089844-1.0938 0.13281-1.6328 0.13281-4.7695 0-8.9727-3.4453-9.7812-8.3047-0.89453-5.4062 2.7656-10.516 8.1719-11.414l183.55-30.387c5.3945-0.86328 10.512 2.7656 11.414 8.1719 0.89062 5.4102-2.7695 10.52-8.1719 11.414z"/>
 </g>
</svg>